<?xml version="1.0" encoding="utf-8" standalone="no"?>
<!DOCTYPE svg PUBLIC "-//W3C//DTD SVG 1.1//EN"
  "http://www.w3.org/Graphics/SVG/1.1/DTD/svg11.dtd">
<svg xmlns:xlink="http://www.w3.org/1999/xlink" width="509.157031pt" height="296.171875pt" viewBox="0 0 509.157031 296.171875" xmlns="http://www.w3.org/2000/svg" version="1.1">
 <metadata>
  <rdf:RDF xmlns:dc="http://purl.org/dc/elements/1.1/" xmlns:cc="http://creativecommons.org/ns#" xmlns:rdf="http://www.w3.org/1999/02/22-rdf-syntax-ns#">
   <cc:Work>
    <dc:type rdf:resource="http://purl.org/dc/dcmitype/StillImage"/>
    <dc:format>image/svg+xml</dc:format>
    <dc:creator>
     <cc:Agent>
      <dc:title>Matplotlib v3.10.6, https://matplotlib.org/</dc:title>
     </cc:Agent>
    </dc:creator>
   </cc:Work>
  </rdf:RDF>
 </metadata>
 <defs>
  <style type="text/css">*{stroke-linejoin: round; stroke-linecap: butt}</style>
 </defs>
 <g id="figure_1">
  <g id="patch_1">
   <path d="M 0 296.171875
L 509.157031 296.171875
L 509.157031 0
L 0 0
z
" style="fill: #ffffff"/>
  </g>
  <g id="axes_1">
   <g id="patch_2">
    <path d="M 55.557031 256.68
L 501.957031 256.68
L 501.957031 7.2
L 55.557031 7.2
z
" style="fill: #ffffff"/>
   </g>
   <g id="PathCollection_1">
    <defs>
     <path id="mfe5ca0d4e5" d="M 0 1.936492
C 0.513564 1.936492 1.006162 1.732451 1.369306 1.369306
C 1.732451 1.006162 1.936492 0.513564 1.936492 0
C 1.936492 -0.513564 1.732451 -1.006162 1.369306 -1.369306
C 1.006162 -1.732451 0.513564 -1.936492 0 -1.936492
C -0.513564 -1.936492 -1.006162 -1.732451 -1.369306 -1.369306
C -1.732451 -1.006162 -1.936492 -0.513564 -1.936492 0
C -1.936492 0.513564 -1.732451 1.006162 -1.369306 1.369306
C -1.006162 1.732451 -0.513564 1.936492 0 1.936492
z
" style="stroke: #1f77b4"/>
    </defs>
    <g clip-path="url(#p1daafaaab2)">
     <use xlink:href="#mfe5ca0d4e5" x="282.854054" y="124.504218" style="fill: #1f77b4; stroke: #1f77b4"/>
     <use xlink:href="#mfe5ca0d4e5" x="119.943928" y="238.047654" style="fill: #1f77b4; stroke: #1f77b4"/>
     <use xlink:href="#mfe5ca0d4e5" x="187.825803" y="166.915035" style="fill: #1f77b4; stroke: #1f77b4"/>
     <use xlink:href="#mfe5ca0d4e5" x="425.446489" y="75.559759" style="fill: #1f77b4; stroke: #1f77b4"/>
     <use xlink:href="#mfe5ca0d4e5" x="210.219717" y="163.409559" style="fill: #1f77b4; stroke: #1f77b4"/>
     <use xlink:href="#mfe5ca0d4e5" x="152.517825" y="241.527392" style="fill: #1f77b4; stroke: #1f77b4"/>
     <use xlink:href="#mfe5ca0d4e5" x="110.118838" y="190.473754" style="fill: #1f77b4; stroke: #1f77b4"/>
     <use xlink:href="#mfe5ca0d4e5" x="133.063499" y="186.792649" style="fill: #1f77b4; stroke: #1f77b4"/>
     <use xlink:href="#mfe5ca0d4e5" x="142.690802" y="191.374236" style="fill: #1f77b4; stroke: #1f77b4"/>
     <use xlink:href="#mfe5ca0d4e5" x="146.600769" y="179.066453" style="fill: #1f77b4; stroke: #1f77b4"/>
     <use xlink:href="#mfe5ca0d4e5" x="238.555111" y="141.460772" style="fill: #1f77b4; stroke: #1f77b4"/>
     <use xlink:href="#mfe5ca0d4e5" x="118.091953" y="224.870342" style="fill: #1f77b4; stroke: #1f77b4"/>
     <use xlink:href="#mfe5ca0d4e5" x="248.81228" y="138.875389" style="fill: #1f77b4; stroke: #1f77b4"/>
     <use xlink:href="#mfe5ca0d4e5" x="461.462361" y="46.382161" style="fill: #1f77b4; stroke: #1f77b4"/>
     <use xlink:href="#mfe5ca0d4e5" x="364.911984" y="102.00109" style="fill: #1f77b4; stroke: #1f77b4"/>
     <use xlink:href="#mfe5ca0d4e5" x="418.166686" y="74.175439" style="fill: #1f77b4; stroke: #1f77b4"/>
     <use xlink:href="#mfe5ca0d4e5" x="452.356029" y="42.872601" style="fill: #1f77b4; stroke: #1f77b4"/>
     <use xlink:href="#mfe5ca0d4e5" x="442.358522" y="32.809601" style="fill: #1f77b4; stroke: #1f77b4"/>
     <use xlink:href="#mfe5ca0d4e5" x="212.724015" y="150.882122" style="fill: #1f77b4; stroke: #1f77b4"/>
     <use xlink:href="#mfe5ca0d4e5" x="427.240583" y="24.548989" style="fill: #1f77b4; stroke: #1f77b4"/>
     <use xlink:href="#mfe5ca0d4e5" x="389.286924" y="82.648807" style="fill: #1f77b4; stroke: #1f77b4"/>
     <use xlink:href="#mfe5ca0d4e5" x="108.845092" y="204.946368" style="fill: #1f77b4; stroke: #1f77b4"/>
     <use xlink:href="#mfe5ca0d4e5" x="116.147837" y="224.471546" style="fill: #1f77b4; stroke: #1f77b4"/>
     <use xlink:href="#mfe5ca0d4e5" x="105.669782" y="214.8901" style="fill: #1f77b4; stroke: #1f77b4"/>
     <use xlink:href="#mfe5ca0d4e5" x="462.908892" y="59.709903" style="fill: #1f77b4; stroke: #1f77b4"/>
     <use xlink:href="#mfe5ca0d4e5" x="481.666122" y="51.055482" style="fill: #1f77b4; stroke: #1f77b4"/>
     <use xlink:href="#mfe5ca0d4e5" x="119.556182" y="214.505313" style="fill: #1f77b4; stroke: #1f77b4"/>
     <use xlink:href="#mfe5ca0d4e5" x="440.793681" y="34.679372" style="fill: #1f77b4; stroke: #1f77b4"/>
     <use xlink:href="#mfe5ca0d4e5" x="136.709799" y="184.362482" style="fill: #1f77b4; stroke: #1f77b4"/>
     <use xlink:href="#mfe5ca0d4e5" x="471.241561" y="58.886844" style="fill: #1f77b4; stroke: #1f77b4"/>
     <use xlink:href="#mfe5ca0d4e5" x="239.488095" y="140.26898" style="fill: #1f77b4; stroke: #1f77b4"/>
     <use xlink:href="#mfe5ca0d4e5" x="464.404091" y="50.089982" style="fill: #1f77b4; stroke: #1f77b4"/>
     <use xlink:href="#mfe5ca0d4e5" x="440.111366" y="51.179748" style="fill: #1f77b4; stroke: #1f77b4"/>
     <use xlink:href="#mfe5ca0d4e5" x="359.435689" y="105.430969" style="fill: #1f77b4; stroke: #1f77b4"/>
     <use xlink:href="#mfe5ca0d4e5" x="413.497548" y="27.885619" style="fill: #1f77b4; stroke: #1f77b4"/>
     <use xlink:href="#mfe5ca0d4e5" x="446.260235" y="62.413956" style="fill: #1f77b4; stroke: #1f77b4"/>
     <use xlink:href="#mfe5ca0d4e5" x="335.158817" y="102.513784" style="fill: #1f77b4; stroke: #1f77b4"/>
     <use xlink:href="#mfe5ca0d4e5" x="447.086648" y="55.114694" style="fill: #1f77b4; stroke: #1f77b4"/>
     <use xlink:href="#mfe5ca0d4e5" x="442.527336" y="68.284345" style="fill: #1f77b4; stroke: #1f77b4"/>
     <use xlink:href="#mfe5ca0d4e5" x="275.037135" y="129.23951" style="fill: #1f77b4; stroke: #1f77b4"/>
     <use xlink:href="#mfe5ca0d4e5" x="427.073637" y="32.807552" style="fill: #1f77b4; stroke: #1f77b4"/>
     <use xlink:href="#mfe5ca0d4e5" x="462.591769" y="58.54729" style="fill: #1f77b4; stroke: #1f77b4"/>
     <use xlink:href="#mfe5ca0d4e5" x="108.063209" y="189.02093" style="fill: #1f77b4; stroke: #1f77b4"/>
     <use xlink:href="#mfe5ca0d4e5" x="75.84794" y="211.2798" style="fill: #1f77b4; stroke: #1f77b4"/>
     <use xlink:href="#mfe5ca0d4e5" x="473.839352" y="52.951981" style="fill: #1f77b4; stroke: #1f77b4"/>
     <use xlink:href="#mfe5ca0d4e5" x="443.573658" y="58.620678" style="fill: #1f77b4; stroke: #1f77b4"/>
     <use xlink:href="#mfe5ca0d4e5" x="208.362569" y="144.85369" style="fill: #1f77b4; stroke: #1f77b4"/>
     <use xlink:href="#mfe5ca0d4e5" x="440.79606" y="39.878224" style="fill: #1f77b4; stroke: #1f77b4"/>
     <use xlink:href="#mfe5ca0d4e5" x="395.200872" y="27.155127" style="fill: #1f77b4; stroke: #1f77b4"/>
     <use xlink:href="#mfe5ca0d4e5" x="423.191384" y="32.823323" style="fill: #1f77b4; stroke: #1f77b4"/>
     <use xlink:href="#mfe5ca0d4e5" x="182.931792" y="161.267135" style="fill: #1f77b4; stroke: #1f77b4"/>
     <use xlink:href="#mfe5ca0d4e5" x="271.089811" y="132.208837" style="fill: #1f77b4; stroke: #1f77b4"/>
     <use xlink:href="#mfe5ca0d4e5" x="111.779949" y="231.173287" style="fill: #1f77b4; stroke: #1f77b4"/>
     <use xlink:href="#mfe5ca0d4e5" x="117.453863" y="207.442973" style="fill: #1f77b4; stroke: #1f77b4"/>
     <use xlink:href="#mfe5ca0d4e5" x="119.742116" y="217.966786" style="fill: #1f77b4; stroke: #1f77b4"/>
     <use xlink:href="#mfe5ca0d4e5" x="414.219259" y="81.130224" style="fill: #1f77b4; stroke: #1f77b4"/>
     <use xlink:href="#mfe5ca0d4e5" x="431.804571" y="29.620805" style="fill: #1f77b4; stroke: #1f77b4"/>
     <use xlink:href="#mfe5ca0d4e5" x="98.364896" y="198.894277" style="fill: #1f77b4; stroke: #1f77b4"/>
     <use xlink:href="#mfe5ca0d4e5" x="464.069761" y="64.862439" style="fill: #1f77b4; stroke: #1f77b4"/>
     <use xlink:href="#mfe5ca0d4e5" x="79.367615" y="221.131241" style="fill: #1f77b4; stroke: #1f77b4"/>
     <use xlink:href="#mfe5ca0d4e5" x="121.407769" y="238.359527" style="fill: #1f77b4; stroke: #1f77b4"/>
     <use xlink:href="#mfe5ca0d4e5" x="468.533263" y="47.983912" style="fill: #1f77b4; stroke: #1f77b4"/>
     <use xlink:href="#mfe5ca0d4e5" x="459.824883" y="64.638314" style="fill: #1f77b4; stroke: #1f77b4"/>
     <use xlink:href="#mfe5ca0d4e5" x="320.513603" y="108.98851" style="fill: #1f77b4; stroke: #1f77b4"/>
     <use xlink:href="#mfe5ca0d4e5" x="439.271085" y="74.304116" style="fill: #1f77b4; stroke: #1f77b4"/>
     <use xlink:href="#mfe5ca0d4e5" x="435.805367" y="27.676615" style="fill: #1f77b4; stroke: #1f77b4"/>
     <use xlink:href="#mfe5ca0d4e5" x="321.499693" y="106.496115" style="fill: #1f77b4; stroke: #1f77b4"/>
     <use xlink:href="#mfe5ca0d4e5" x="120.015021" y="225.643756" style="fill: #1f77b4; stroke: #1f77b4"/>
     <use xlink:href="#mfe5ca0d4e5" x="152.745222" y="243.271935" style="fill: #1f77b4; stroke: #1f77b4"/>
     <use xlink:href="#mfe5ca0d4e5" x="107.42605" y="203.627078" style="fill: #1f77b4; stroke: #1f77b4"/>
     <use xlink:href="#mfe5ca0d4e5" x="430.367233" y="36.08991" style="fill: #1f77b4; stroke: #1f77b4"/>
     <use xlink:href="#mfe5ca0d4e5" x="286.923481" y="130.466655" style="fill: #1f77b4; stroke: #1f77b4"/>
     <use xlink:href="#mfe5ca0d4e5" x="417.056456" y="26.349688" style="fill: #1f77b4; stroke: #1f77b4"/>
     <use xlink:href="#mfe5ca0d4e5" x="466.277446" y="54.475871" style="fill: #1f77b4; stroke: #1f77b4"/>
     <use xlink:href="#mfe5ca0d4e5" x="112.463217" y="225.099077" style="fill: #1f77b4; stroke: #1f77b4"/>
     <use xlink:href="#mfe5ca0d4e5" x="367.492102" y="96.01573" style="fill: #1f77b4; stroke: #1f77b4"/>
     <use xlink:href="#mfe5ca0d4e5" x="337.333235" y="109.576805" style="fill: #1f77b4; stroke: #1f77b4"/>
     <use xlink:href="#mfe5ca0d4e5" x="460.421198" y="39.07938" style="fill: #1f77b4; stroke: #1f77b4"/>
     <use xlink:href="#mfe5ca0d4e5" x="224.106086" y="145.973498" style="fill: #1f77b4; stroke: #1f77b4"/>
     <use xlink:href="#mfe5ca0d4e5" x="121.134106" y="228.151884" style="fill: #1f77b4; stroke: #1f77b4"/>
     <use xlink:href="#mfe5ca0d4e5" x="416.435403" y="74.843554" style="fill: #1f77b4; stroke: #1f77b4"/>
     <use xlink:href="#mfe5ca0d4e5" x="466.495717" y="50.678341" style="fill: #1f77b4; stroke: #1f77b4"/>
     <use xlink:href="#mfe5ca0d4e5" x="285.485453" y="126.198159" style="fill: #1f77b4; stroke: #1f77b4"/>
     <use xlink:href="#mfe5ca0d4e5" x="405.209901" y="84.615172" style="fill: #1f77b4; stroke: #1f77b4"/>
     <use xlink:href="#mfe5ca0d4e5" x="404.632345" y="78.745904" style="fill: #1f77b4; stroke: #1f77b4"/>
     <use xlink:href="#mfe5ca0d4e5" x="460.636819" y="61.277778" style="fill: #1f77b4; stroke: #1f77b4"/>
     <use xlink:href="#mfe5ca0d4e5" x="170.898011" y="165.678889" style="fill: #1f77b4; stroke: #1f77b4"/>
     <use xlink:href="#mfe5ca0d4e5" x="126.336749" y="222.169539" style="fill: #1f77b4; stroke: #1f77b4"/>
     <use xlink:href="#mfe5ca0d4e5" x="115.025453" y="229.089257" style="fill: #1f77b4; stroke: #1f77b4"/>
     <use xlink:href="#mfe5ca0d4e5" x="118.222315" y="218.932668" style="fill: #1f77b4; stroke: #1f77b4"/>
     <use xlink:href="#mfe5ca0d4e5" x="383.746338" y="97.945678" style="fill: #1f77b4; stroke: #1f77b4"/>
     <use xlink:href="#mfe5ca0d4e5" x="394.292687" y="93.293276" style="fill: #1f77b4; stroke: #1f77b4"/>
     <use xlink:href="#mfe5ca0d4e5" x="185.961223" y="146.855399" style="fill: #1f77b4; stroke: #1f77b4"/>
     <use xlink:href="#mfe5ca0d4e5" x="139.160618" y="186.952961" style="fill: #1f77b4; stroke: #1f77b4"/>
     <use xlink:href="#mfe5ca0d4e5" x="447.370381" y="40.309178" style="fill: #1f77b4; stroke: #1f77b4"/>
     <use xlink:href="#mfe5ca0d4e5" x="182.100463" y="168.264998" style="fill: #1f77b4; stroke: #1f77b4"/>
     <use xlink:href="#mfe5ca0d4e5" x="142.110001" y="183.275978" style="fill: #1f77b4; stroke: #1f77b4"/>
     <use xlink:href="#mfe5ca0d4e5" x="331.111676" y="110.284055" style="fill: #1f77b4; stroke: #1f77b4"/>
     <use xlink:href="#mfe5ca0d4e5" x="108.534072" y="226.800373" style="fill: #1f77b4; stroke: #1f77b4"/>
     <use xlink:href="#mfe5ca0d4e5" x="111.870359" y="192.247516" style="fill: #1f77b4; stroke: #1f77b4"/>
     <use xlink:href="#mfe5ca0d4e5" x="181.605603" y="153.029886" style="fill: #1f77b4; stroke: #1f77b4"/>
     <use xlink:href="#mfe5ca0d4e5" x="220.142667" y="139.826963" style="fill: #1f77b4; stroke: #1f77b4"/>
     <use xlink:href="#mfe5ca0d4e5" x="341.203876" y="109.773507" style="fill: #1f77b4; stroke: #1f77b4"/>
     <use xlink:href="#mfe5ca0d4e5" x="358.5916" y="108.290873" style="fill: #1f77b4; stroke: #1f77b4"/>
     <use xlink:href="#mfe5ca0d4e5" x="321.775159" y="109.949486" style="fill: #1f77b4; stroke: #1f77b4"/>
     <use xlink:href="#mfe5ca0d4e5" x="464.777229" y="57.631465" style="fill: #1f77b4; stroke: #1f77b4"/>
     <use xlink:href="#mfe5ca0d4e5" x="390.568547" y="89.290713" style="fill: #1f77b4; stroke: #1f77b4"/>
     <use xlink:href="#mfe5ca0d4e5" x="263.5248" y="131.786618" style="fill: #1f77b4; stroke: #1f77b4"/>
     <use xlink:href="#mfe5ca0d4e5" x="316.789761" y="119.563149" style="fill: #1f77b4; stroke: #1f77b4"/>
     <use xlink:href="#mfe5ca0d4e5" x="120.959391" y="229.327422" style="fill: #1f77b4; stroke: #1f77b4"/>
     <use xlink:href="#mfe5ca0d4e5" x="429.788746" y="34.627406" style="fill: #1f77b4; stroke: #1f77b4"/>
     <use xlink:href="#mfe5ca0d4e5" x="443.302352" y="30.345161" style="fill: #1f77b4; stroke: #1f77b4"/>
     <use xlink:href="#mfe5ca0d4e5" x="442.577991" y="34.673797" style="fill: #1f77b4; stroke: #1f77b4"/>
     <use xlink:href="#mfe5ca0d4e5" x="445.032955" y="70.230414" style="fill: #1f77b4; stroke: #1f77b4"/>
     <use xlink:href="#mfe5ca0d4e5" x="454.433532" y="54.926727" style="fill: #1f77b4; stroke: #1f77b4"/>
     <use xlink:href="#mfe5ca0d4e5" x="430.19393" y="81.401547" style="fill: #1f77b4; stroke: #1f77b4"/>
     <use xlink:href="#mfe5ca0d4e5" x="453.707775" y="58.003286" style="fill: #1f77b4; stroke: #1f77b4"/>
     <use xlink:href="#mfe5ca0d4e5" x="210.705018" y="151.818303" style="fill: #1f77b4; stroke: #1f77b4"/>
     <use xlink:href="#mfe5ca0d4e5" x="245.144218" y="137.698277" style="fill: #1f77b4; stroke: #1f77b4"/>
     <use xlink:href="#mfe5ca0d4e5" x="109.004328" y="213.652149" style="fill: #1f77b4; stroke: #1f77b4"/>
    </g>
   </g>
   <g id="matplotlib.axis_1">
    <g id="xtick_1">
     <g id="line2d_1">
      <path d="M 105.206152 256.68
L 105.206152 7.2
" clip-path="url(#p1daafaaab2)" style="fill: none; stroke: #b0b0b0; stroke-opacity: 0.2; stroke-width: 0.8; stroke-linecap: square"/>
     </g>
     <g id="line2d_2">
      <defs>
       <path id="m4550613e78" d="M 0 0
L 0 3.5
" style="stroke: #000000; stroke-width: 0.8"/>
      </defs>
      <g>
       <use xlink:href="#m4550613e78" x="105.206152" y="256.68" style="stroke: #000000; stroke-width: 0.8"/>
      </g>
     </g>
     <g id="text_1">
      <!-- −1.5 -->
      <g transform="translate(91.850605 272.038281) scale(0.11 -0.11)">
       <defs>
        <path id="DejaVuSans-2212" d="M 678 2272
L 4684 2272
L 4684 1741
L 678 1741
L 678 2272
z
" transform="scale(0.015625)"/>
        <path id="DejaVuSans-31" d="M 794 531
L 1825 531
L 1825 4091
L 703 3866
L 703 4441
L 1819 4666
L 2450 4666
L 2450 531
L 3481 531
L 3481 0
L 794 0
L 794 531
z
" transform="scale(0.015625)"/>
        <path id="DejaVuSans-2e" d="M 684 794
L 1344 794
L 1344 0
L 684 0
L 684 794
z
" transform="scale(0.015625)"/>
        <path id="DejaVuSans-35" d="M 691 4666
L 3169 4666
L 3169 4134
L 1269 4134
L 1269 2991
Q 1406 3038 1543 3061
Q 1681 3084 1819 3084
Q 2600 3084 3056 2656
Q 3513 2228 3513 1497
Q 3513 744 3044 326
Q 2575 -91 1722 -91
Q 1428 -91 1123 -41
Q 819 9 494 109
L 494 744
Q 775 591 1075 516
Q 1375 441 1709 441
Q 2250 441 2565 725
Q 2881 1009 2881 1497
Q 2881 1984 2565 2268
Q 2250 2553 1709 2553
Q 1456 2553 1204 2497
Q 953 2441 691 2322
L 691 4666
z
" transform="scale(0.015625)"/>
       </defs>
       <use xlink:href="#DejaVuSans-2212"/>
       <use xlink:href="#DejaVuSans-31" transform="translate(83.789062 0)"/>
       <use xlink:href="#DejaVuSans-2e" transform="translate(147.412109 0)"/>
       <use xlink:href="#DejaVuSans-35" transform="translate(179.199219 0)"/>
      </g>
     </g>
    </g>
    <g id="xtick_2">
     <g id="line2d_3">
      <path d="M 164.146918 256.68
L 164.146918 7.2
" clip-path="url(#p1daafaaab2)" style="fill: none; stroke: #b0b0b0; stroke-opacity: 0.2; stroke-width: 0.8; stroke-linecap: square"/>
     </g>
     <g id="line2d_4">
      <g>
       <use xlink:href="#m4550613e78" x="164.146918" y="256.68" style="stroke: #000000; stroke-width: 0.8"/>
      </g>
     </g>
     <g id="text_2">
      <!-- −1.0 -->
      <g transform="translate(150.791371 272.038281) scale(0.11 -0.11)">
       <defs>
        <path id="DejaVuSans-30" d="M 2034 4250
Q 1547 4250 1301 3770
Q 1056 3291 1056 2328
Q 1056 1369 1301 889
Q 1547 409 2034 409
Q 2525 409 2770 889
Q 3016 1369 3016 2328
Q 3016 3291 2770 3770
Q 2525 4250 2034 4250
z
M 2034 4750
Q 2819 4750 3233 4129
Q 3647 3509 3647 2328
Q 3647 1150 3233 529
Q 2819 -91 2034 -91
Q 1250 -91 836 529
Q 422 1150 422 2328
Q 422 3509 836 4129
Q 1250 4750 2034 4750
z
" transform="scale(0.015625)"/>
       </defs>
       <use xlink:href="#DejaVuSans-2212"/>
       <use xlink:href="#DejaVuSans-31" transform="translate(83.789062 0)"/>
       <use xlink:href="#DejaVuSans-2e" transform="translate(147.412109 0)"/>
       <use xlink:href="#DejaVuSans-30" transform="translate(179.199219 0)"/>
      </g>
     </g>
    </g>
    <g id="xtick_3">
     <g id="line2d_5">
      <path d="M 223.087684 256.68
L 223.087684 7.2
" clip-path="url(#p1daafaaab2)" style="fill: none; stroke: #b0b0b0; stroke-opacity: 0.2; stroke-width: 0.8; stroke-linecap: square"/>
     </g>
     <g id="line2d_6">
      <g>
       <use xlink:href="#m4550613e78" x="223.087684" y="256.68" style="stroke: #000000; stroke-width: 0.8"/>
      </g>
     </g>
     <g id="text_3">
      <!-- −0.5 -->
      <g transform="translate(209.732137 272.038281) scale(0.11 -0.11)">
       <use xlink:href="#DejaVuSans-2212"/>
       <use xlink:href="#DejaVuSans-30" transform="translate(83.789062 0)"/>
       <use xlink:href="#DejaVuSans-2e" transform="translate(147.412109 0)"/>
       <use xlink:href="#DejaVuSans-35" transform="translate(179.199219 0)"/>
      </g>
     </g>
    </g>
    <g id="xtick_4">
     <g id="line2d_7">
      <path d="M 282.02845 256.68
L 282.02845 7.2
" clip-path="url(#p1daafaaab2)" style="fill: none; stroke: #b0b0b0; stroke-opacity: 0.2; stroke-width: 0.8; stroke-linecap: square"/>
     </g>
     <g id="line2d_8">
      <g>
       <use xlink:href="#m4550613e78" x="282.02845" y="256.68" style="stroke: #000000; stroke-width: 0.8"/>
      </g>
     </g>
     <g id="text_4">
      <!-- 0.0 -->
      <g transform="translate(273.281732 272.038281) scale(0.11 -0.11)">
       <use xlink:href="#DejaVuSans-30"/>
       <use xlink:href="#DejaVuSans-2e" transform="translate(63.623047 0)"/>
       <use xlink:href="#DejaVuSans-30" transform="translate(95.410156 0)"/>
      </g>
     </g>
    </g>
    <g id="xtick_5">
     <g id="line2d_9">
      <path d="M 340.969216 256.68
L 340.969216 7.2
" clip-path="url(#p1daafaaab2)" style="fill: none; stroke: #b0b0b0; stroke-opacity: 0.2; stroke-width: 0.8; stroke-linecap: square"/>
     </g>
     <g id="line2d_10">
      <g>
       <use xlink:href="#m4550613e78" x="340.969216" y="256.68" style="stroke: #000000; stroke-width: 0.8"/>
      </g>
     </g>
     <g id="text_5">
      <!-- 0.5 -->
      <g transform="translate(332.222498 272.038281) scale(0.11 -0.11)">
       <use xlink:href="#DejaVuSans-30"/>
       <use xlink:href="#DejaVuSans-2e" transform="translate(63.623047 0)"/>
       <use xlink:href="#DejaVuSans-35" transform="translate(95.410156 0)"/>
      </g>
     </g>
    </g>
    <g id="xtick_6">
     <g id="line2d_11">
      <path d="M 399.909983 256.68
L 399.909983 7.2
" clip-path="url(#p1daafaaab2)" style="fill: none; stroke: #b0b0b0; stroke-opacity: 0.2; stroke-width: 0.8; stroke-linecap: square"/>
     </g>
     <g id="line2d_12">
      <g>
       <use xlink:href="#m4550613e78" x="399.909983" y="256.68" style="stroke: #000000; stroke-width: 0.8"/>
      </g>
     </g>
     <g id="text_6">
      <!-- 1.0 -->
      <g transform="translate(391.163264 272.038281) scale(0.11 -0.11)">
       <use xlink:href="#DejaVuSans-31"/>
       <use xlink:href="#DejaVuSans-2e" transform="translate(63.623047 0)"/>
       <use xlink:href="#DejaVuSans-30" transform="translate(95.410156 0)"/>
      </g>
     </g>
    </g>
    <g id="xtick_7">
     <g id="line2d_13">
      <path d="M 458.850749 256.68
L 458.850749 7.2
" clip-path="url(#p1daafaaab2)" style="fill: none; stroke: #b0b0b0; stroke-opacity: 0.2; stroke-width: 0.8; stroke-linecap: square"/>
     </g>
     <g id="line2d_14">
      <g>
       <use xlink:href="#m4550613e78" x="458.850749" y="256.68" style="stroke: #000000; stroke-width: 0.8"/>
      </g>
     </g>
     <g id="text_7">
      <!-- 1.5 -->
      <g transform="translate(450.10403 272.038281) scale(0.11 -0.11)">
       <use xlink:href="#DejaVuSans-31"/>
       <use xlink:href="#DejaVuSans-2e" transform="translate(63.623047 0)"/>
       <use xlink:href="#DejaVuSans-35" transform="translate(95.410156 0)"/>
      </g>
     </g>
    </g>
    <g id="text_8">
     <!-- true target -->
     <g transform="translate(248.998594 286.684219) scale(0.11 -0.11)">
      <defs>
       <path id="DejaVuSans-74" d="M 1172 4494
L 1172 3500
L 2356 3500
L 2356 3053
L 1172 3053
L 1172 1153
Q 1172 725 1289 603
Q 1406 481 1766 481
L 2356 481
L 2356 0
L 1766 0
Q 1100 0 847 248
Q 594 497 594 1153
L 594 3053
L 172 3053
L 172 3500
L 594 3500
L 594 4494
L 1172 4494
z
" transform="scale(0.015625)"/>
       <path id="DejaVuSans-72" d="M 2631 2963
Q 2534 3019 2420 3045
Q 2306 3072 2169 3072
Q 1681 3072 1420 2755
Q 1159 2438 1159 1844
L 1159 0
L 581 0
L 581 3500
L 1159 3500
L 1159 2956
Q 1341 3275 1631 3429
Q 1922 3584 2338 3584
Q 2397 3584 2469 3576
Q 2541 3569 2628 3553
L 2631 2963
z
" transform="scale(0.015625)"/>
       <path id="DejaVuSans-75" d="M 544 1381
L 544 3500
L 1119 3500
L 1119 1403
Q 1119 906 1312 657
Q 1506 409 1894 409
Q 2359 409 2629 706
Q 2900 1003 2900 1516
L 2900 3500
L 3475 3500
L 3475 0
L 2900 0
L 2900 538
Q 2691 219 2414 64
Q 2138 -91 1772 -91
Q 1169 -91 856 284
Q 544 659 544 1381
z
M 1991 3584
L 1991 3584
z
" transform="scale(0.015625)"/>
       <path id="DejaVuSans-65" d="M 3597 1894
L 3597 1613
L 953 1613
Q 991 1019 1311 708
Q 1631 397 2203 397
Q 2534 397 2845 478
Q 3156 559 3463 722
L 3463 178
Q 3153 47 2828 -22
Q 2503 -91 2169 -91
Q 1331 -91 842 396
Q 353 884 353 1716
Q 353 2575 817 3079
Q 1281 3584 2069 3584
Q 2775 3584 3186 3129
Q 3597 2675 3597 1894
z
M 3022 2063
Q 3016 2534 2758 2815
Q 2500 3097 2075 3097
Q 1594 3097 1305 2825
Q 1016 2553 972 2059
L 3022 2063
z
" transform="scale(0.015625)"/>
       <path id="DejaVuSans-20" transform="scale(0.015625)"/>
       <path id="DejaVuSans-61" d="M 2194 1759
Q 1497 1759 1228 1600
Q 959 1441 959 1056
Q 959 750 1161 570
Q 1363 391 1709 391
Q 2188 391 2477 730
Q 2766 1069 2766 1631
L 2766 1759
L 2194 1759
z
M 3341 1997
L 3341 0
L 2766 0
L 2766 531
Q 2569 213 2275 61
Q 1981 -91 1556 -91
Q 1019 -91 701 211
Q 384 513 384 1019
Q 384 1609 779 1909
Q 1175 2209 1959 2209
L 2766 2209
L 2766 2266
Q 2766 2663 2505 2880
Q 2244 3097 1772 3097
Q 1472 3097 1187 3025
Q 903 2953 641 2809
L 641 3341
Q 956 3463 1253 3523
Q 1550 3584 1831 3584
Q 2591 3584 2966 3190
Q 3341 2797 3341 1997
z
" transform="scale(0.015625)"/>
       <path id="DejaVuSans-67" d="M 2906 1791
Q 2906 2416 2648 2759
Q 2391 3103 1925 3103
Q 1463 3103 1205 2759
Q 947 2416 947 1791
Q 947 1169 1205 825
Q 1463 481 1925 481
Q 2391 481 2648 825
Q 2906 1169 2906 1791
z
M 3481 434
Q 3481 -459 3084 -895
Q 2688 -1331 1869 -1331
Q 1566 -1331 1297 -1286
Q 1028 -1241 775 -1147
L 775 -588
Q 1028 -725 1275 -790
Q 1522 -856 1778 -856
Q 2344 -856 2625 -561
Q 2906 -266 2906 331
L 2906 616
Q 2728 306 2450 153
Q 2172 0 1784 0
Q 1141 0 747 490
Q 353 981 353 1791
Q 353 2603 747 3093
Q 1141 3584 1784 3584
Q 2172 3584 2450 3431
Q 2728 3278 2906 2969
L 2906 3500
L 3481 3500
L 3481 434
z
" transform="scale(0.015625)"/>
      </defs>
      <use xlink:href="#DejaVuSans-74"/>
      <use xlink:href="#DejaVuSans-72" transform="translate(39.208984 0)"/>
      <use xlink:href="#DejaVuSans-75" transform="translate(80.322266 0)"/>
      <use xlink:href="#DejaVuSans-65" transform="translate(143.701172 0)"/>
      <use xlink:href="#DejaVuSans-20" transform="translate(205.224609 0)"/>
      <use xlink:href="#DejaVuSans-74" transform="translate(237.011719 0)"/>
      <use xlink:href="#DejaVuSans-61" transform="translate(276.220703 0)"/>
      <use xlink:href="#DejaVuSans-72" transform="translate(337.5 0)"/>
      <use xlink:href="#DejaVuSans-67" transform="translate(376.863281 0)"/>
      <use xlink:href="#DejaVuSans-65" transform="translate(440.339844 0)"/>
      <use xlink:href="#DejaVuSans-74" transform="translate(501.863281 0)"/>
     </g>
    </g>
   </g>
   <g id="matplotlib.axis_2">
    <g id="ytick_1">
     <g id="line2d_15">
      <path d="M 55.557031 228.932548
L 501.957031 228.932548
" clip-path="url(#p1daafaaab2)" style="fill: none; stroke: #b0b0b0; stroke-opacity: 0.2; stroke-width: 0.8; stroke-linecap: square"/>
     </g>
     <g id="line2d_16">
      <defs>
       <path id="m6c93332fbe" d="M 0 0
L -3.5 0
" style="stroke: #000000; stroke-width: 0.8"/>
      </defs>
      <g>
       <use xlink:href="#m6c93332fbe" x="55.557031" y="228.932548" style="stroke: #000000; stroke-width: 0.8"/>
      </g>
     </g>
     <g id="text_9">
      <!-- −1.5 -->
      <g transform="translate(21.845938 233.111688) scale(0.11 -0.11)">
       <use xlink:href="#DejaVuSans-2212"/>
       <use xlink:href="#DejaVuSans-31" transform="translate(83.789062 0)"/>
       <use xlink:href="#DejaVuSans-2e" transform="translate(147.412109 0)"/>
       <use xlink:href="#DejaVuSans-35" transform="translate(179.199219 0)"/>
      </g>
     </g>
    </g>
    <g id="ytick_2">
     <g id="line2d_17">
      <path d="M 55.557031 195.992265
L 501.957031 195.992265
" clip-path="url(#p1daafaaab2)" style="fill: none; stroke: #b0b0b0; stroke-opacity: 0.2; stroke-width: 0.8; stroke-linecap: square"/>
     </g>
     <g id="line2d_18">
      <g>
       <use xlink:href="#m6c93332fbe" x="55.557031" y="195.992265" style="stroke: #000000; stroke-width: 0.8"/>
      </g>
     </g>
     <g id="text_10">
      <!-- −1.0 -->
      <g transform="translate(21.845938 200.171405) scale(0.11 -0.11)">
       <use xlink:href="#DejaVuSans-2212"/>
       <use xlink:href="#DejaVuSans-31" transform="translate(83.789062 0)"/>
       <use xlink:href="#DejaVuSans-2e" transform="translate(147.412109 0)"/>
       <use xlink:href="#DejaVuSans-30" transform="translate(179.199219 0)"/>
      </g>
     </g>
    </g>
    <g id="ytick_3">
     <g id="line2d_19">
      <path d="M 55.557031 163.051982
L 501.957031 163.051982
" clip-path="url(#p1daafaaab2)" style="fill: none; stroke: #b0b0b0; stroke-opacity: 0.2; stroke-width: 0.8; stroke-linecap: square"/>
     </g>
     <g id="line2d_20">
      <g>
       <use xlink:href="#m6c93332fbe" x="55.557031" y="163.051982" style="stroke: #000000; stroke-width: 0.8"/>
      </g>
     </g>
     <g id="text_11">
      <!-- −0.5 -->
      <g transform="translate(21.845938 167.231122) scale(0.11 -0.11)">
       <use xlink:href="#DejaVuSans-2212"/>
       <use xlink:href="#DejaVuSans-30" transform="translate(83.789062 0)"/>
       <use xlink:href="#DejaVuSans-2e" transform="translate(147.412109 0)"/>
       <use xlink:href="#DejaVuSans-35" transform="translate(179.199219 0)"/>
      </g>
     </g>
    </g>
    <g id="ytick_4">
     <g id="line2d_21">
      <path d="M 55.557031 130.111699
L 501.957031 130.111699
" clip-path="url(#p1daafaaab2)" style="fill: none; stroke: #b0b0b0; stroke-opacity: 0.2; stroke-width: 0.8; stroke-linecap: square"/>
     </g>
     <g id="line2d_22">
      <g>
       <use xlink:href="#m6c93332fbe" x="55.557031" y="130.111699" style="stroke: #000000; stroke-width: 0.8"/>
      </g>
     </g>
     <g id="text_12">
      <!-- 0.0 -->
      <g transform="translate(31.063594 134.290839) scale(0.11 -0.11)">
       <use xlink:href="#DejaVuSans-30"/>
       <use xlink:href="#DejaVuSans-2e" transform="translate(63.623047 0)"/>
       <use xlink:href="#DejaVuSans-30" transform="translate(95.410156 0)"/>
      </g>
     </g>
    </g>
    <g id="ytick_5">
     <g id="line2d_23">
      <path d="M 55.557031 97.171416
L 501.957031 97.171416
" clip-path="url(#p1daafaaab2)" style="fill: none; stroke: #b0b0b0; stroke-opacity: 0.2; stroke-width: 0.8; stroke-linecap: square"/>
     </g>
     <g id="line2d_24">
      <g>
       <use xlink:href="#m6c93332fbe" x="55.557031" y="97.171416" style="stroke: #000000; stroke-width: 0.8"/>
      </g>
     </g>
     <g id="text_13">
      <!-- 0.5 -->
      <g transform="translate(31.063594 101.350556) scale(0.11 -0.11)">
       <use xlink:href="#DejaVuSans-30"/>
       <use xlink:href="#DejaVuSans-2e" transform="translate(63.623047 0)"/>
       <use xlink:href="#DejaVuSans-35" transform="translate(95.410156 0)"/>
      </g>
     </g>
    </g>
    <g id="ytick_6">
     <g id="line2d_25">
      <path d="M 55.557031 64.231133
L 501.957031 64.231133
" clip-path="url(#p1daafaaab2)" style="fill: none; stroke: #b0b0b0; stroke-opacity: 0.2; stroke-width: 0.8; stroke-linecap: square"/>
     </g>
     <g id="line2d_26">
      <g>
       <use xlink:href="#m6c93332fbe" x="55.557031" y="64.231133" style="stroke: #000000; stroke-width: 0.8"/>
      </g>
     </g>
     <g id="text_14">
      <!-- 1.0 -->
      <g transform="translate(31.063594 68.410273) scale(0.11 -0.11)">
       <use xlink:href="#DejaVuSans-31"/>
       <use xlink:href="#DejaVuSans-2e" transform="translate(63.623047 0)"/>
       <use xlink:href="#DejaVuSans-30" transform="translate(95.410156 0)"/>
      </g>
     </g>
    </g>
    <g id="ytick_7">
     <g id="line2d_27">
      <path d="M 55.557031 31.29085
L 501.957031 31.29085
" clip-path="url(#p1daafaaab2)" style="fill: none; stroke: #b0b0b0; stroke-opacity: 0.2; stroke-width: 0.8; stroke-linecap: square"/>
     </g>
     <g id="line2d_28">
      <g>
       <use xlink:href="#m6c93332fbe" x="55.557031" y="31.29085" style="stroke: #000000; stroke-width: 0.8"/>
      </g>
     </g>
     <g id="text_15">
      <!-- 1.5 -->
      <g transform="translate(31.063594 35.469991) scale(0.11 -0.11)">
       <use xlink:href="#DejaVuSans-31"/>
       <use xlink:href="#DejaVuSans-2e" transform="translate(63.623047 0)"/>
       <use xlink:href="#DejaVuSans-35" transform="translate(95.410156 0)"/>
      </g>
     </g>
    </g>
    <g id="text_16">
     <!-- MLP prediction -->
     <g transform="translate(15.558281 172.40625) rotate(-90) scale(0.11 -0.11)">
      <defs>
       <path id="DejaVuSans-4d" d="M 628 4666
L 1569 4666
L 2759 1491
L 3956 4666
L 4897 4666
L 4897 0
L 4281 0
L 4281 4097
L 3078 897
L 2444 897
L 1241 4097
L 1241 0
L 628 0
L 628 4666
z
" transform="scale(0.015625)"/>
       <path id="DejaVuSans-4c" d="M 628 4666
L 1259 4666
L 1259 531
L 3531 531
L 3531 0
L 628 0
L 628 4666
z
" transform="scale(0.015625)"/>
       <path id="DejaVuSans-50" d="M 1259 4147
L 1259 2394
L 2053 2394
Q 2494 2394 2734 2622
Q 2975 2850 2975 3272
Q 2975 3691 2734 3919
Q 2494 4147 2053 4147
L 1259 4147
z
M 628 4666
L 2053 4666
Q 2838 4666 3239 4311
Q 3641 3956 3641 3272
Q 3641 2581 3239 2228
Q 2838 1875 2053 1875
L 1259 1875
L 1259 0
L 628 0
L 628 4666
z
" transform="scale(0.015625)"/>
       <path id="DejaVuSans-70" d="M 1159 525
L 1159 -1331
L 581 -1331
L 581 3500
L 1159 3500
L 1159 2969
Q 1341 3281 1617 3432
Q 1894 3584 2278 3584
Q 2916 3584 3314 3078
Q 3713 2572 3713 1747
Q 3713 922 3314 415
Q 2916 -91 2278 -91
Q 1894 -91 1617 61
Q 1341 213 1159 525
z
M 3116 1747
Q 3116 2381 2855 2742
Q 2594 3103 2138 3103
Q 1681 3103 1420 2742
Q 1159 2381 1159 1747
Q 1159 1113 1420 752
Q 1681 391 2138 391
Q 2594 391 2855 752
Q 3116 1113 3116 1747
z
" transform="scale(0.015625)"/>
       <path id="DejaVuSans-64" d="M 2906 2969
L 2906 4863
L 3481 4863
L 3481 0
L 2906 0
L 2906 525
Q 2725 213 2448 61
Q 2172 -91 1784 -91
Q 1150 -91 751 415
Q 353 922 353 1747
Q 353 2572 751 3078
Q 1150 3584 1784 3584
Q 2172 3584 2448 3432
Q 2725 3281 2906 2969
z
M 947 1747
Q 947 1113 1208 752
Q 1469 391 1925 391
Q 2381 391 2643 752
Q 2906 1113 2906 1747
Q 2906 2381 2643 2742
Q 2381 3103 1925 3103
Q 1469 3103 1208 2742
Q 947 2381 947 1747
z
" transform="scale(0.015625)"/>
       <path id="DejaVuSans-69" d="M 603 3500
L 1178 3500
L 1178 0
L 603 0
L 603 3500
z
M 603 4863
L 1178 4863
L 1178 4134
L 603 4134
L 603 4863
z
" transform="scale(0.015625)"/>
       <path id="DejaVuSans-63" d="M 3122 3366
L 3122 2828
Q 2878 2963 2633 3030
Q 2388 3097 2138 3097
Q 1578 3097 1268 2742
Q 959 2388 959 1747
Q 959 1106 1268 751
Q 1578 397 2138 397
Q 2388 397 2633 464
Q 2878 531 3122 666
L 3122 134
Q 2881 22 2623 -34
Q 2366 -91 2075 -91
Q 1284 -91 818 406
Q 353 903 353 1747
Q 353 2603 823 3093
Q 1294 3584 2113 3584
Q 2378 3584 2631 3529
Q 2884 3475 3122 3366
z
" transform="scale(0.015625)"/>
       <path id="DejaVuSans-6f" d="M 1959 3097
Q 1497 3097 1228 2736
Q 959 2375 959 1747
Q 959 1119 1226 758
Q 1494 397 1959 397
Q 2419 397 2687 759
Q 2956 1122 2956 1747
Q 2956 2369 2687 2733
Q 2419 3097 1959 3097
z
M 1959 3584
Q 2709 3584 3137 3096
Q 3566 2609 3566 1747
Q 3566 888 3137 398
Q 2709 -91 1959 -91
Q 1206 -91 779 398
Q 353 888 353 1747
Q 353 2609 779 3096
Q 1206 3584 1959 3584
z
" transform="scale(0.015625)"/>
       <path id="DejaVuSans-6e" d="M 3513 2113
L 3513 0
L 2938 0
L 2938 2094
Q 2938 2591 2744 2837
Q 2550 3084 2163 3084
Q 1697 3084 1428 2787
Q 1159 2491 1159 1978
L 1159 0
L 581 0
L 581 3500
L 1159 3500
L 1159 2956
Q 1366 3272 1645 3428
Q 1925 3584 2291 3584
Q 2894 3584 3203 3211
Q 3513 2838 3513 2113
z
" transform="scale(0.015625)"/>
      </defs>
      <use xlink:href="#DejaVuSans-4d"/>
      <use xlink:href="#DejaVuSans-4c" transform="translate(86.279297 0)"/>
      <use xlink:href="#DejaVuSans-50" transform="translate(141.992188 0)"/>
      <use xlink:href="#DejaVuSans-20" transform="translate(202.294922 0)"/>
      <use xlink:href="#DejaVuSans-70" transform="translate(234.082031 0)"/>
      <use xlink:href="#DejaVuSans-72" transform="translate(297.558594 0)"/>
      <use xlink:href="#DejaVuSans-65" transform="translate(336.421875 0)"/>
      <use xlink:href="#DejaVuSans-64" transform="translate(397.945312 0)"/>
      <use xlink:href="#DejaVuSans-69" transform="translate(461.421875 0)"/>
      <use xlink:href="#DejaVuSans-63" transform="translate(489.205078 0)"/>
      <use xlink:href="#DejaVuSans-74" transform="translate(544.185547 0)"/>
      <use xlink:href="#DejaVuSans-69" transform="translate(583.394531 0)"/>
      <use xlink:href="#DejaVuSans-6f" transform="translate(611.177734 0)"/>
      <use xlink:href="#DejaVuSans-6e" transform="translate(672.359375 0)"/>
     </g>
    </g>
   </g>
   <g id="line2d_29">
    <path d="M 75.84794 245.34
L 481.666122 18.54
" clip-path="url(#p1daafaaab2)" style="fill: none; stroke-dasharray: 5.55,2.4; stroke-dashoffset: 0; stroke: #000000; stroke-width: 1.5"/>
   </g>
   <g id="patch_3">
    <path d="M 55.557031 256.68
L 55.557031 7.2
" style="fill: none; stroke: #000000; stroke-width: 0.8; stroke-linejoin: miter; stroke-linecap: square"/>
   </g>
   <g id="patch_4">
    <path d="M 501.957031 256.68
L 501.957031 7.2
" style="fill: none; stroke: #000000; stroke-width: 0.8; stroke-linejoin: miter; stroke-linecap: square"/>
   </g>
   <g id="patch_5">
    <path d="M 55.557031 256.68
L 501.957031 256.68
" style="fill: none; stroke: #000000; stroke-width: 0.8; stroke-linejoin: miter; stroke-linecap: square"/>
   </g>
   <g id="patch_6">
    <path d="M 55.557031 7.2
L 501.957031 7.2
" style="fill: none; stroke: #000000; stroke-width: 0.8; stroke-linejoin: miter; stroke-linecap: square"/>
   </g>
  </g>
 </g>
 <defs>
  <clipPath id="p1daafaaab2">
   <rect x="55.557031" y="7.2" width="446.4" height="249.48"/>
  </clipPath>
 </defs>
</svg>
